<?xml version="1.0" standalone="no"?>
<!DOCTYPE svg PUBLIC "-//W3C//DTD SVG 20010904//EN"
 "http://www.w3.org/TR/2001/REC-SVG-20010904/DTD/svg10.dtd">
<svg version="1.0" xmlns="http://www.w3.org/2000/svg"
 width="860.000000pt" height="398.000000pt" viewBox="0 0 860.000000 398.000000"
 preserveAspectRatio="xMidYMid meet">

<g transform="translate(0.000000,398.000000) scale(0.100000,-0.100000)"
fill="#000000" stroke="none">
<path d="M4206 3559 c-150 -20 -382 -96 -527 -170 -138 -72 -518 -399 -473
-407 11 -2 26 -13 36 -25 16 -21 17 -20 98 56 81 77 222 178 311 222 126 64
391 157 405 142 3 -3 -9 -8 -28 -12 -44 -10 -270 -101 -313 -127 -46 -27 -45
-33 3 -10 89 45 226 92 323 110 212 40 272 38 172 -6 -40 -18 -44 -22 -23 -23
28 -1 12 -6 -123 -34 -43 -9 -76 -19 -74 -22 3 -2 43 4 89 14 65 14 126 18
285 18 201 0 232 6 99 21 -38 4 -62 10 -55 14 21 11 174 -8 206 -26 l28 -16
-32 4 c-59 8 -35 -8 31 -20 92 -17 208 -58 311 -110 118 -59 187 -107 260
-181 64 -66 101 -85 44 -24 -18 21 -2 9 36 -26 39 -36 76 -70 84 -78 8 -7 16
-25 17 -40 2 -22 114 -208 140 -232 11 -10 -27 62 -48 92 -11 16 -18 30 -15
33 3 3 22 -22 42 -55 21 -34 38 -61 39 -61 1 0 -2 37 -6 83 -4 45 -5 103 -1
130 6 53 -8 64 -22 15 -6 -17 -15 -33 -22 -35 -14 -5 -36 67 -31 105 3 24 9
28 63 39 33 8 70 18 82 25 13 6 39 8 64 4 l43 -7 -26 21 c-14 11 -37 20 -51
20 -18 0 -33 13 -60 54 -19 29 -67 82 -106 117 -75 67 -87 85 -45 69 14 -6 23
-6 19 -1 -3 5 -29 17 -58 26 -28 10 -126 55 -217 102 -187 96 -340 151 -525
188 -142 29 -339 40 -449 24z m1225 -796 c13 -16 12 -17 -3 -4 -10 7 -18 15
-18 17 0 8 8 3 21 -13z"/>
<path d="M2740 2980 c0 -6 12 -29 27 -51 24 -36 28 -39 39 -24 11 15 14 15 26
-7 24 -42 22 -648 -2 -687 -4 -7 -32 -21 -61 -31 -31 -10 -54 -23 -54 -31 0
-22 333 -25 375 -4 23 12 34 13 54 4 20 -9 32 -9 58 4 18 8 58 22 88 31 l55
15 50 100 c27 55 46 103 42 107 -3 4 5 20 18 36 20 23 25 41 25 83 0 59 -20
163 -50 266 -21 71 -24 74 -122 109 -32 12 -64 30 -72 41 -11 17 -29 20 -122
25 -60 2 -147 9 -194 14 -111 13 -180 13 -180 0z m452 -71 c26 -14 46 -59 63
-139 8 -39 26 -91 40 -114 27 -47 33 -101 12 -109 -9 -3 -16 -29 -20 -64 -11
-97 -35 -164 -77 -205 -34 -34 -43 -38 -89 -38 l-50 0 -23 73 c-22 68 -23 87
-21 325 1 174 5 257 13 267 20 25 109 27 152 4z"/>
<path d="M3121 2891 c-11 -20 -61 -187 -61 -203 0 -5 33 35 74 89 73 97 74 98
54 116 -26 22 -55 22 -67 -2z"/>
<path d="M5590 2914 c-19 -7 -46 -13 -60 -14 -43 -1 -51 -12 -44 -59 8 -53 21
-61 32 -20 10 39 27 47 42 20 7 -15 7 -33 -1 -65 -8 -32 -8 -49 0 -64 13 -24
15 -212 3 -212 -15 0 -60 55 -117 145 -31 50 -66 100 -77 111 -17 19 -17 22
-4 27 45 18 -6 78 -103 122 -35 15 -46 17 -62 7 -11 -7 -65 -18 -119 -24 -59
-8 -99 -17 -97 -23 2 -5 29 -24 61 -41 32 -17 62 -37 67 -45 5 -8 9 -106 9
-219 0 -239 -3 -250 -90 -315 l-53 -40 123 -3 c113 -2 126 -1 144 18 l20 20
-30 0 c-20 0 -41 9 -58 26 -30 31 -33 75 -16 260 14 150 19 174 34 174 51 0
355 -392 373 -482 6 -28 35 -39 48 -18 4 7 12 7 25 0 28 -15 35 -12 17 8 -49
54 -60 216 -35 530 l12 154 31 -6 c39 -8 79 17 55 34 -20 13 -87 11 -130 -6z"/>
<path d="M5649 2875 c-3 -2 -10 -103 -18 -270 -11 -230 -3 -333 28 -376 26
-35 27 -49 1 -49 -15 0 -20 -7 -20 -25 0 -30 -20 -33 -27 -5 -3 11 -9 20 -13
20 -5 0 -15 3 -23 6 -10 3 -18 -2 -22 -16 -4 -14 -12 -19 -22 -16 -10 4 -13 0
-11 -16 2 -16 15 -25 51 -35 92 -27 161 -136 141 -221 -16 -65 -65 -130 -131
-174 l-23 -15 35 -54 c28 -45 32 -56 20 -65 -11 -9 -10 -15 8 -38 14 -17 30
-27 42 -24 14 2 28 -11 52 -46 33 -51 42 -59 79 -70 19 -6 24 1 43 46 31 78
88 266 106 354 42 204 44 469 5 644 -12 52 -39 138 -62 190 -43 102 -63 141
-53 103 11 -41 -4 -25 -60 61 -48 76 -57 84 -89 88 -20 2 -36 4 -37 3z"/>
<path d="M3858 2690 l-17 -30 -171 0 c-104 0 -170 -4 -170 -10 0 -5 14 -17 30
-25 38 -19 53 -55 40 -91 -6 -14 -10 -88 -10 -164 l0 -140 -25 -6 c-13 -3 -29
-12 -35 -19 -8 -10 -3 -14 22 -19 56 -9 168 -7 273 6 88 12 100 15 101 33 1
11 4 49 7 85 6 60 5 62 -6 29 -15 -46 -64 -109 -83 -109 -13 0 -13 6 5 36 32
53 25 54 -23 2 -24 -27 -49 -48 -54 -48 -22 0 -64 46 -65 73 -1 15 -8 27 -14
27 -8 0 -13 15 -13 40 0 37 2 39 36 46 44 8 58 -4 79 -66 14 -42 14 -42 11
-10 -3 19 -8 50 -12 68 -5 26 -3 32 10 32 14 0 16 10 14 62 -4 73 -28 96 -28
26 0 -23 -4 -48 -8 -55 -7 -12 -87 -34 -95 -27 -7 7 25 98 40 115 7 8 13 25
13 37 0 19 5 22 45 22 39 0 47 -4 57 -25 9 -19 14 -22 25 -14 10 9 12 6 7 -20
-4 -20 -3 -31 5 -31 6 0 11 6 11 14 0 7 9 25 20 39 21 26 25 61 14 116 -8 39
-14 39 -36 1z"/>
<path d="M4030 2665 c0 -11 -12 -15 -51 -15 -31 0 -48 -4 -44 -10 3 -5 23 -10
44 -10 59 0 64 -13 69 -170 6 -184 2 -205 -49 -230 -22 -12 -37 -25 -34 -30 4
-6 47 -10 96 -10 l91 0 -31 30 c-38 38 -43 65 -39 215 l3 120 24 -60 c61 -150
82 -190 92 -175 16 26 29 -8 29 -78 0 -115 39 -63 109 146 25 75 51 137 57
139 18 6 38 -70 25 -95 -8 -15 -7 -23 3 -31 11 -9 12 -21 4 -53 -5 -26 -5 -52
1 -69 9 -27 8 -29 -36 -49 -28 -12 -43 -24 -37 -30 5 -5 55 -6 112 -3 76 4
102 9 102 19 0 8 -11 14 -25 14 -18 0 -25 5 -25 19 0 11 -5 23 -11 27 -8 5
-10 44 -6 133 7 158 18 199 58 213 35 12 41 41 7 34 -60 -12 -128 -15 -178 -7
-30 5 -57 7 -60 4 -5 -5 25 -30 43 -36 11 -3 -54 -221 -76 -250 -12 -17 -16
-13 -46 52 -18 39 -36 97 -41 130 -12 89 -42 128 -73 97 -11 -12 -20 -10 -53
10 -46 28 -54 29 -54 9z"/>
<path d="M4710 2647 c-90 -45 -119 -89 -133 -199 -10 -82 -10 -86 18 -141 15
-32 35 -62 44 -66 9 -5 60 -19 113 -32 95 -22 99 -22 135 -5 106 50 153 118
153 219 0 118 -68 208 -183 242 -68 20 -72 20 -147 -18z m141 -17 c26 -14 45
-54 63 -134 22 -91 21 -104 -14 -180 l-29 -66 -66 0 -66 0 -16 38 c-21 51 -29
199 -13 257 23 81 81 117 141 85z"/>
<path d="M5072 2115 c9 -10 38 -23 65 -30 48 -12 48 -13 55 -61 9 -58 28 -517
23 -542 -2 -9 -7 -38 -10 -63 -6 -45 -8 -47 -43 -53 -37 -5 -82 -30 -82 -45 0
-13 68 -12 171 4 57 8 124 15 151 15 66 0 62 28 -7 44 -16 4 -33 13 -37 19 -9
13 -11 261 -3 269 3 3 16 3 29 1 25 -5 57 -64 124 -233 l38 -95 73 -5 c60 -4
76 -9 91 -27 21 -26 58 -30 66 -8 5 11 22 15 65 15 56 0 59 1 49 19 -6 12 -25
22 -52 26 -72 11 -96 25 -129 76 -23 36 -36 48 -49 44 -12 -4 -28 8 -54 41
-41 54 -44 64 -15 57 19 -5 18 -1 -10 44 -31 51 -38 73 -22 73 19 0 105 87
122 125 48 105 -4 223 -114 256 -17 6 -73 17 -123 24 -50 8 -98 17 -106 20
-10 4 -17 -1 -21 -14 -6 -25 -34 -27 -85 -5 -20 8 -68 18 -107 21 -67 5 -69 5
-53 -12z m413 -88 c44 -11 52 -17 70 -52 28 -58 33 -160 9 -187 -46 -51 -156
-74 -202 -42 -29 20 -29 67 -1 114 17 28 20 44 16 85 -4 27 -9 60 -13 73 -6
20 -3 22 32 21 22 0 62 -6 89 -12z"/>
<path d="M3150 2010 c-24 -47 -35 -61 -48 -57 -176 54 -222 59 -288 27 -78
-38 -126 -147 -103 -233 16 -60 102 -140 217 -202 102 -54 162 -110 162 -150
0 -14 -13 -39 -29 -57 l-28 -32 -59 11 c-35 6 -66 7 -76 2 -55 -29 -101 13
-142 131 -16 45 -40 95 -53 111 -30 35 -63 39 -63 7 1 -50 19 -111 40 -140 20
-28 21 -35 12 -111 -13 -120 0 -141 35 -57 17 41 26 50 46 50 14 0 27 -6 30
-14 10 -26 101 -48 175 -42 37 3 74 6 82 6 8 1 23 0 32 -2 10 -2 37 21 72 62
56 65 56 65 56 132 0 82 -23 148 -52 148 -10 0 -38 18 -61 40 -23 22 -45 40
-50 40 -14 -1 -112 53 -148 81 -19 15 -48 46 -64 69 l-28 41 30 42 c28 38 36
42 78 45 67 4 112 -28 182 -133 31 -47 60 -85 64 -85 15 0 43 155 43 240 1 72
-2 85 -16 88 -12 2 -26 -14 -48 -58z"/>
<path d="M3975 2027 c4 -13 -3 -46 -14 -75 -11 -28 -20 -64 -20 -79 1 -29 -37
-149 -53 -169 -4 -7 -22 -14 -39 -18 -22 -4 -30 -11 -27 -23 2 -11 11 -17 21
-15 12 2 17 -4 17 -23 0 -41 -18 -65 -48 -65 -32 0 -74 -20 -80 -38 -3 -9 3
-10 24 -2 20 8 31 7 43 -4 12 -11 28 -12 66 -6 28 5 56 9 63 9 22 1 13 27 -14
40 -24 10 -25 15 -19 49 4 20 8 39 10 41 11 10 115 -12 129 -28 15 -17 15 -22
-5 -75 -23 -60 -20 -78 11 -58 22 13 50 16 50 5 0 -5 34 -9 75 -10 68 -1 91 6
66 21 -8 5 -26 36 -67 117 -8 14 -25 35 -38 48 -19 18 -24 30 -20 51 4 19 -2
38 -21 66 -22 32 -26 46 -21 78 6 32 3 42 -19 62 -15 14 -25 34 -25 51 0 30
-24 73 -41 73 -5 0 -7 -10 -4 -23z m21 -263 c26 -61 20 -74 -32 -74 l-46 0 7
33 c11 47 34 89 46 81 6 -3 17 -21 25 -40z"/>
<path d="M5075 2020 l-16 -30 -182 0 -182 -1 41 -37 41 -37 -5 -183 -4 -183
-34 -14 c-39 -16 -44 -30 -11 -38 34 -9 179 -10 210 -2 16 4 63 10 105 14 l77
6 1 40 c0 22 4 63 8 90 6 36 5 46 -3 35 -6 -8 -11 -25 -11 -38 0 -25 -74 -111
-85 -100 -4 4 2 23 13 43 29 47 11 45 -28 -5 -42 -53 -81 -55 -110 -8 -11 18
-17 41 -14 50 4 13 1 16 -10 12 -13 -5 -16 2 -16 39 0 38 3 46 23 51 62 16 79
4 92 -67 4 -20 11 -37 16 -37 12 0 11 7 -6 64 -18 61 -19 66 -1 66 17 0 28 55
20 98 -10 49 -34 41 -34 -10 0 -58 -10 -69 -63 -75 l-45 -5 19 57 c10 32 25
65 31 73 7 8 12 23 10 34 -3 15 4 18 46 18 43 0 50 -3 60 -26 7 -14 16 -23 21
-19 6 3 11 -9 13 -27 3 -28 5 -30 12 -13 4 11 12 27 17 35 23 38 29 66 23 111
-8 56 -17 61 -39 19z"/>
<path d="M4205 2021 c5 -18 2 -21 -20 -21 -36 0 -28 -21 18 -42 26 -13 47 -36
77 -88 57 -98 100 -191 100 -218 0 -40 -43 -102 -70 -102 -10 0 -28 -9 -41
-20 l-24 -19 45 -1 c25 0 59 -4 77 -9 20 -6 35 -5 41 1 6 6 43 9 86 6 52 -2
76 0 76 8 0 15 -30 40 -56 48 -24 7 -34 41 -34 117 0 71 94 258 139 278 52 22
32 36 -55 39 -65 2 -81 0 -91 -14 -19 -27 -16 -37 11 -30 18 4 25 1 29 -13 5
-21 -47 -134 -65 -140 -6 -2 -8 1 -4 8 4 6 2 9 -7 5 -10 -3 -20 12 -35 51 -24
62 -27 91 -12 100 17 10 11 25 -9 25 -11 0 -23 5 -26 10 -5 8 -11 7 -20 0 -18
-15 -71 -4 -109 23 l-28 20 7 -22z"/>
<path d="M3260 2006 c0 -8 19 -25 43 -38 l42 -23 6 -123 c6 -129 19 -179 19
-73 0 44 3 60 11 55 17 -10 4 -145 -19 -196 -14 -33 -26 -44 -61 -57 -25 -9
-46 -22 -49 -30 -4 -12 12 -13 94 -8 55 4 159 7 232 7 l133 0 14 33 c10 24 10
33 2 35 -8 2 -11 24 -9 69 3 58 2 65 -11 55 -8 -7 -22 -37 -32 -67 -24 -77
-42 -97 -89 -97 -42 0 -77 21 -110 66 -25 34 -25 116 2 243 15 74 20 84 52
105 48 33 52 58 8 58 -18 0 -45 -7 -60 -14 -22 -12 -45 -13 -113 -6 -47 5 -89
12 -95 15 -5 3 -10 0 -10 -9z"/>
<path d="M5456 1441 c-13 -15 -14 -20 -4 -23 11 -4 11 -8 0 -20 -9 -11 -10
-18 -2 -23 5 -3 10 -15 10 -26 0 -16 -7 -19 -42 -19 -35 0 -50 -7 -98 -49 -40
-35 -60 -47 -68 -39 -7 7 -12 3 -17 -13 -11 -34 -55 -93 -125 -169 -48 -52
-62 -62 -69 -50 -9 12 -11 12 -17 -3 -4 -10 -40 -41 -81 -68 -41 -28 -77 -57
-80 -65 -3 -8 -11 -14 -19 -14 -7 0 -28 -18 -45 -40 -33 -40 -56 -49 -76 -29
-8 8 -32 4 -86 -15 -42 -14 -95 -26 -120 -26 -28 0 -49 -6 -58 -16 -33 -40
-69 -48 -224 -48 -237 1 -450 52 -641 154 -127 67 -397 252 -514 351 -49 41
-59 45 -92 41 l-38 -4 23 -32 c14 -19 26 -59 33 -106 7 -41 12 -62 13 -47 1
37 20 31 46 -13 11 -18 35 -48 53 -67 30 -29 31 -33 13 -33 -26 0 -27 -16 -3
-29 10 -5 30 -30 43 -55 27 -52 39 -58 39 -21 0 42 16 29 64 -53 25 -42 46
-74 46 -69 0 4 34 -16 76 -44 58 -40 74 -56 71 -70 -4 -15 1 -19 23 -19 37 0
48 -18 18 -29 l-23 -9 28 -11 c16 -6 34 -11 40 -11 7 0 36 -11 65 -25 62 -29
65 -51 6 -48 l-39 1 33 -14 c18 -8 53 -17 77 -21 41 -5 46 -3 84 36 37 37 45
41 91 41 47 0 65 -12 38 -24 -7 -3 8 -3 35 0 35 5 54 2 73 -10 20 -14 31 -15
58 -6 19 6 103 10 202 9 133 -1 179 2 214 15 27 9 77 16 127 16 45 0 105 5
133 12 47 11 49 13 29 23 -19 11 -15 13 37 19 32 4 106 17 164 30 58 14 138
30 179 36 40 7 69 15 63 19 -5 3 19 32 55 63 47 41 81 62 120 73 32 10 69 30
91 50 44 41 40 45 -8 10 -52 -38 -69 -30 -21 11 23 20 55 63 73 97 32 65 86
137 103 137 6 0 36 46 68 103 48 86 54 103 39 105 -9 2 -26 14 -37 28 -17 20
-31 24 -85 27 -36 1 -70 6 -77 10 -7 4 -22 35 -34 67 -12 33 -25 60 -29 60 -4
0 -15 -9 -24 -19z"/>
<path d="M2870 1373 c0 -13 29 -38 35 -31 3 3 -4 13 -15 23 -11 10 -20 13 -20
8z"/>
<path d="M3430 1236 c0 -37 4 -66 10 -66 6 0 10 8 10 18 0 10 5 23 12 30 9 9
16 5 30 -18 10 -17 25 -30 33 -30 17 0 12 15 -19 55 -13 18 -13 22 6 42 31 33
13 41 -20 10 -34 -33 -44 -34 -40 -5 2 11 -3 23 -9 25 -10 4 -13 -13 -13 -61z"/>
<path d="M3559 1295 c-5 -43 1 -120 10 -123 7 -2 11 18 11 62 0 37 -4 66 -10
66 -5 0 -10 -2 -11 -5z"/>
<path d="M3607 1294 c-4 -4 -7 -34 -7 -66 0 -45 3 -58 15 -58 10 0 15 11 16
38 l1 37 10 -37 c13 -48 35 -49 44 -3 3 19 9 35 13 35 4 0 5 -16 3 -35 -3 -28
-1 -35 12 -35 25 0 19 123 -6 128 -12 2 -20 -8 -30 -40 l-13 -42 -11 39 c-10
38 -31 55 -47 39z"/>
<path d="M3757 1294 c-4 -4 -7 -34 -7 -66 l0 -58 50 0 c28 0 50 5 50 10 0 6
-16 10 -35 10 -28 0 -35 4 -35 20 0 16 7 20 30 20 17 0 30 5 30 10 0 6 -13 10
-30 10 -40 0 -38 18 3 22 17 2 32 8 32 13 0 12 -77 19 -88 9z"/>
<path d="M3860 1289 c0 -6 9 -13 20 -16 17 -4 20 -14 20 -54 0 -27 5 -49 10
-49 6 0 10 23 10 50 0 43 3 50 20 50 11 0 20 7 20 15 0 11 -12 15 -50 15 -30
0 -50 -4 -50 -11z"/>
<path d="M3993 1293 c-7 -2 -13 -15 -13 -29 0 -18 9 -27 37 -39 28 -12 34 -18
25 -27 -9 -9 -18 -8 -37 2 -29 16 -43 7 -25 -15 9 -11 26 -15 49 -13 31 3 36
7 39 31 3 23 -2 30 -34 43 -25 10 -33 19 -26 26 6 6 16 5 30 -3 27 -17 43 -2
18 17 -20 14 -41 17 -63 7z"/>
<path d="M4099 1296 c-2 -3 -2 -31 1 -63 l5 -58 37 -3 c45 -4 61 19 56 80 -5
63 -26 60 -30 -4 -3 -45 -6 -53 -23 -53 -17 0 -20 8 -23 53 -3 46 -10 61 -23
48z"/>
<path d="M4530 1295 c0 -2 11 -21 25 -41 14 -20 25 -47 25 -60 0 -13 5 -24 10
-24 6 0 10 11 10 25 0 13 9 39 20 57 22 37 25 48 10 48 -6 0 -16 -11 -22 -25
-6 -14 -14 -25 -18 -25 -4 0 -12 11 -18 25 -10 21 -42 36 -42 20z"/>
<path d="M4657 1238 c-15 -39 -21 -64 -15 -67 6 -2 15 4 20 13 11 20 54 21 62
1 3 -8 12 -15 20 -15 11 0 9 14 -12 65 -14 36 -31 65 -38 65 -6 0 -23 -28 -37
-62z m53 -10 c0 -5 -7 -8 -15 -8 -17 0 -18 2 -9 25 5 13 8 14 15 3 5 -7 9 -16
9 -20z"/>
<path d="M4770 1236 c0 -53 3 -66 15 -66 13 0 15 11 13 62 -2 38 -8 63 -15 66
-10 3 -13 -14 -13 -62z"/>
<path d="M4820 1235 l0 -65 44 0 c52 0 76 21 58 50 -6 11 -9 27 -5 36 9 23
-22 44 -64 44 l-33 0 0 -65z m64 39 c20 -8 11 -24 -15 -24 -10 0 -19 7 -19 15
0 16 9 19 34 9z m14 -66 c-7 -20 -48 -23 -48 -4 0 11 9 16 26 16 16 0 24 -5
22 -12z"/>
<path d="M4971 1258 c-28 -65 -34 -88 -21 -88 6 0 13 7 16 15 4 8 17 15 30 15
14 0 27 -7 30 -15 5 -12 34 -22 34 -12 0 16 -50 122 -59 125 -6 2 -20 -16 -30
-40z m39 -24 c0 -8 -6 -14 -14 -14 -9 0 -12 7 -9 20 6 22 23 18 23 -6z"/>
<path d="M4398 1279 c-21 -12 -24 -69 -6 -87 19 -19 55 -14 72 10 21 30 20 44
-4 68 -22 22 -37 24 -62 9z m47 -44 c0 -23 -4 -30 -20 -30 -21 0 -31 25 -21
51 11 28 41 12 41 -21z"/>
<path d="M4280 1230 c0 -30 4 -50 11 -50 7 0 10 12 7 30 -6 38 2 38 24 0 25
-44 38 -37 38 20 0 28 -4 50 -10 50 -5 0 -10 -12 -10 -27 l-1 -28 -20 28 c-30
39 -39 34 -39 -23z"/>
</g>
</svg>
